<?xml version="1.0" encoding="UTF-8" standalone="no"?>
<!-- Created with Inkscape (http://www.inkscape.org/) -->

<svg
   xmlns:dc="http://purl.org/dc/elements/1.1/"
   xmlns:cc="http://creativecommons.org/ns#"
   xmlns:rdf="http://www.w3.org/1999/02/22-rdf-syntax-ns#"
   xmlns:svg="http://www.w3.org/2000/svg"
   xmlns="http://www.w3.org/2000/svg"
   xmlns:sodipodi="http://sodipodi.sourceforge.net/DTD/sodipodi-0.dtd"
   xmlns:inkscape="http://www.inkscape.org/namespaces/inkscape"
   width="297mm"
   height="210mm"
   id="svg5163"
   version="1.1"
   inkscape:version="0.91 r13725"
   viewBox="0 0 1052.3622 744.09449"
   sodipodi:docname="certificate.svg">
  <defs
     id="defs5165">
    <clipPath
       clipPathUnits="userSpaceOnUse"
       id="clipPath5035">
      <path
         style="font-size:60.49792862px;font-style:normal;font-variant:normal;font-weight:normal;font-stretch:normal;text-align:start;line-height:125%;letter-spacing:0px;word-spacing:0px;writing-mode:lr-tb;text-anchor:start;fill:#fbd41e;fill-opacity:1;stroke:none;display:inline;font-family:FontAwesome;-inkscape-font-specification:FontAwesome"
         d="m 3283.7266,6043.0215 c -33.997,-0.3997 -72.5639,17.769 -98.0918,41.0449 -5.9472,-0.3159 -11.8975,-0.6561 -17.8282,-0.7773 a 122.24928,122.24928 0 0 0 -0.01,0 c -99.7306,-2.0338 -197.2548,22.3383 -283.4492,71.6191 -84.03,48.0414 -155.6108,115.4383 -211.6016,197.7148 a 122.24928,122.24928 0 0 0 -0.2871,0.4239 c -18.8635,27.9704 -29.7382,63.0238 -30.4219,96.3125 a 122.24928,122.24928 0 0 0 0,0.1582 c -0.082,4.2822 0.036,8.6288 0.3067,13.0078 -41.6342,-16.4522 -86.0893,-25.5268 -130.8243,-26.4629 3.4692,-13.6069 4.978,-27.3861 4.2305,-40.2207 -2.3248,-33.1324 -22.0586,-75.1503 -50.2227,-97.9356 -42.1536,-35.038 -90.3563,-61.9665 -141.9648,-79.5117 -46.0978,-15.7296 -94.3685,-23.8092 -142.7793,-24.082 a 122.24928,122.24928 0 0 0 -0.7012,0.031 l 0.014,-0.031 c -6.6074,0 -12.9545,0.124 -19.0762,0.3164 a 122.24928,122.24928 0 0 0 -0.3418,0.01 c -55.4683,1.8985 -110.2591,13.9692 -161.4023,35.7519 -50.8061,21.5744 -97.5724,52.455 -137.457,91.3438 a 122.24928,122.24928 0 0 0 -1.7481,1.7383 l -0.5137,0.5214 a 122.24928,122.24928 0 0 0 -2.4257,2.5352 c -9.8314,10.5711 -18.3013,24.8561 -24.6856,40.2734 -2.3465,-1.0805 -4.6206,-2.2708 -6.9883,-3.3183 -68.9965,-30.9951 -144.2545,-46.7001 -221.8613,-48.2852 a 122.24928,122.24928 0 0 0 -0.332,-0.01 c -4.3005,-0.076 -8.8522,-0.1366 -13.6504,-0.1465 l -0.076,0 c -4.9117,-0.012 -9.9367,0.035 -15.0801,0.1679 -67.3946,1.7271 -133.2605,14.493 -194.9023,39.0899 -69.8198,27.6742 -131.4749,69.6522 -177.7344,125.3554 -18.8693,22.7217 -34.8249,48.062 -47.3183,75.0157 -24.5606,-22.7206 -51.3965,-43.0689 -80.2364,-60.6621 -75.52467,-46.2658 -162.17795,-71.1143 -251.34763,-72.9336 a 122.24928,122.24928 0 0 0 -0.006,0 c -2.82139,-0.058 -5.60691,-0.093 -8.35742,-0.1055 l -0.0293,0 c -86.3569,-0.4172 -170.84651,21.0932 -245.81055,62.6973 a 122.24928,122.24928 0 0 0 -0.25976,0.1445 c -31.25243,17.4439 -60.42122,38.0955 -87.16797,61.5 -7.59103,-30.5945 -29.1989,-66.7238 -45.58203,-79.584 a 122.24928,122.24928 0 0 0 -11.74414,-8.1543 c -19.79144,-12.0927 -34.88488,-21.2506 -45.96875,-27.8379 -5.54194,-3.2936 -9.93482,-5.874 -14.44922,-8.4004 -2.2572,-1.2631 -4.3384,-2.4393 -8.24024,-4.3886 -1.95092,-0.9747 -4.15142,-2.1133 -9.0957,-4.1446 -4.94428,-2.0312 0.16076,-9.3125 -46.92187,-9.3125 a 122.24928,122.24928 0 0 0 -41.7168,7.3379 l -2.8457,1.0332 a 122.24928,122.24928 0 0 0 -14.24414,6.3633 c -8.98434,-7.723 -25.18715,-16.0341 -64.4375,-17.2598 a 122.24928,122.24928 0 0 0 -3.94141,0.074 l 0.12695,-0.127 c -40.65752,0 -38.78751,6.1696 -43.75781,8.0527 -4.9703,1.8832 -7.20596,2.9606 -9.14063,3.8614 -3.86931,1.8016 -5.7904,2.824 -7.83984,3.8926 -4.09887,2.1369 -7.87462,4.1957 -12.710936,6.83 a 122.24928,122.24928 0 0 0 -0.002,0 c -9.359702,5.0984 -19.586963,10.6678 -30.455079,16.6875 a 122.24928,122.24928 0 0 0 -0.0039,0 c -10.015225,5.5476 -26.925832,13.756 -10.871094,6.1133 a 122.24928,122.24928 0 0 0 -18.880859,11.168 c -18.910095,13.615 -52.021575,55.7943 -52.806641,100.9355 -0.01302,0.01 -0.02799,0.02 -0.04101,0.027 -0.0063,0.3296 0.0054,0.5713 0,0.8965 -0.0018,0.234 -0.03125,0.4651 -0.03125,0.6992 l 0.01758,-1.5879 c -5.597468,3.0852 -12.056343,7.2846 -19.878906,13.7265 -5.763848,0.015 -12.05534,0.4317 -18.808594,1.4258 -6.905776,-10.5318 -14.780569,-19.734 -22.9375,-26.8281 -21.625284,-18.2223 -56.077791,-32.8478 -86.337891,-33.5391 a 122.24928,122.24928 0 0 0 -0.40039,-0.01 l -92.45117,-1.8086 a 122.24928,122.24928 0 0 0 -0.13867,0 c -24.98088,-0.4602 -60.11824,7.7952 -86.81836,28.6094 -10.57065,8.2403 -19.07018,17.5148 -25.96289,26.9746 -6.61809,-1.202 -13.22377,-1.9669 -19.64453,-2.1153 a 122.24928,122.24928 0 0 0 -0.38867,-0.012 c -65.86344,-1.3128 -73.77376,19.4853 -88.0918,29.7031 -14.31804,10.2179 -25.52271,20.2278 -38.02734,32.0332 -22.44654,21.1904 -38.45152,36.7016 -54.74024,57.9883 l 0.91602,-1.0957 c -16.92786,21.9504 -29.07447,53.4957 -29.86524,81.8926 -0.23201,8.0093 0.19636,15.2316 1,21.9355 -13.13269,9.0146 -24.04463,19.1528 -31.22656,28.5079 -17.14588,22.5934 -27.73546,51.9652 -28.44141,80.2168 a 122.24928,122.24928 0 0 0 -0.0137,0.6386 l -1.81054,91.6797 0.0176,-0.7832 c -0.69964,26.7342 8.49911,61.0884 27.25586,86.2754 a 122.24928,122.24928 0 0 0 4.42188,5.5898 c 7.06488,8.4148 15.68478,15.9819 25.125,22.5977 -1.08836,6.2817 -1.85469,12.769 -2.04688,19.5644 a 122.24928,122.24928 0 0 0 -0.0234,0.918 c -1.16873,56.3149 15.54311,66.1047 23.57226,78.6192 8.02916,12.5144 15.26941,21.2937 23.32227,30.6347 16.10571,18.6821 35.41406,38.2653 60.30078,62.2071 a 122.24928,122.24928 0 0 0 6.39062,5.7285 c 20.66925,17.2619 54.19305,31.7863 85.86328,32.5175 a 122.24928,122.24928 0 0 0 0.1211,0 c 6.50881,0.1439 13.68118,-0.3424 21.1582,-1.4082 6.02405,9.2169 12.6668,17.4659 19.54297,23.8418 a 122.24928,122.24928 0 0 0 6.14648,5.3301 c 18.79666,15.2348 50.40834,30.3603 84.03907,31.1153 a 122.24928,122.24928 0 0 0 0.35351,0.012 l 92.45313,1.8086 a 122.24928,122.24928 0 0 0 0.13672,0 c 24.9865,0.4607 60.1243,-7.7972 86.822258,-28.6114 10.568472,-8.2393 19.068968,-17.5139 25.960937,-26.9726 5.910443,1.0728 11.792555,1.729 17.5625,1.9687 0.123325,0.1104 0.272506,0.2709 0.394532,0.3789 7.41329,6.5643 13.555264,10.8804 18.943359,14.1426 -0.0056,0.2554 -0.02414,0.4315 -0.0293,0.6895 a 122.24928,122.24928 0 0 0 -0.02344,2.4433 c 0,48.0052 26.8902044,82.621 49.007812,99.9141 a 122.24928,122.24928 0 0 0 11.664063,8.0762 c 20.058026,12.2274 35.185397,21.404 45.783203,27.7636 5.298903,3.1799 9.381551,5.6106 12.951172,7.6856 1.78481,1.0375 3.299187,1.9173 5.783203,3.2754 1.242008,0.679 2.525243,1.4066 5.794921,3.0039 1.63484,0.7986 3.56455,1.7855 8.22461,3.6621 4.50674,1.8149 -0.13464,8.3714 41.7832,8.8047 38.66201,1.3291 55.54681,-5.946 65.26758,-13.1524 9.59711,7.269 26.13152,14.6404 61.9707,15.7598 a 122.24928,122.24928 0 0 0 3.81641,0.059 c 43.38528,0 37.77168,-5.8844 42.07031,-7.4551 4.29864,-1.5706 6.10385,-2.4026 7.63477,-3.0781 3.06183,-1.3511 4.29919,-1.9827 5.50391,-2.5762 2.4094,-1.187 3.94904,-1.9908 5.76757,-2.9433 3.63706,-1.9051 7.86695,-4.1765 13.34375,-7.1465 10.95361,-5.94 26.58035,-14.5275 47.23047,-25.9864 a 122.24928,122.24928 0 0 0 12.09571,-7.6699 c 8.70555,-6.2656 20.41808,-18.6075 30.60546,-34.4922 l 0,1096.0899 6685.71281,0 0,-1209.3067 c 21.9234,7.326 44.4994,11.1854 65.7285,11.6172 l 276.8165,5.6836 a 122.24928,122.24928 0 0 0 0.051,0 c 48.9521,0.9852 106.3928,-16.0692 146.6172,-52.8945 41.8792,-38.1916 63.0422,-97.3318 64.0508,-147.1582 a 122.24928,122.24928 0 0 0 0,-0.1231 c 0.2504,-13.0092 0.1388,-26.6059 -0.6484,-40.7968 -0.3166,-7.7013 -0.8576,-15.552 -1.6895,-23.5586 5.4554,-2.9221 10.8288,-6.0582 16.0156,-9.6055 a 122.24928,122.24928 0 0 0 1.1934,-0.8262 c 42.4835,-29.8015 69.6537,-88.8425 70.6055,-134.9941 a 122.24928,122.24928 0 0 0 0,-0.027 c 0.9042,-44.3766 -0.038,-81.5945 -14.1719,-124.58 -4.9823,-15.1522 -11.9931,-31.9128 -24.0957,-48.8223 0.8958,-6.7291 1.4631,-13.4255 1.5976,-20.0312 l 0,-0.012 c 1.0322,-50.8075 -20.7546,-107.7379 -56.4882,-144.9687 a 122.24928,122.24928 0 0 0 -0.018,-0.021 c -35.1992,-36.6581 -90.7912,-61.5445 -142.4961,-62.5977 -51.7378,-1.0538 -108.2362,21.4758 -144.9863,56.754 -6.9727,6.6933 -13.4893,14.1072 -19.4805,22.0703 -6.5681,-0.7196 -13.1309,-1.2184 -19.6563,-1.3516 -2.0034,-0.041 -3.9593,-0.058 -5.8632,-0.055 -4.5261,0.01 -9.0692,0.2065 -13.6153,0.5 -5.6498,-8.1725 -11.8446,-15.8269 -18.5293,-22.791 l -0.012,-0.012 c -35.6155,-37.1003 -91.598,-61.2405 -142.2871,-62.3379 -1.5016,-0.051 -3.1379,-0.114 -5.8516,-0.1367 a 122.24928,122.24928 0 0 0 -0.045,0 c -3.4356,-0.027 -7.8943,0.01 -13.4199,0.3867 a 122.24928,122.24928 0 0 0 -0.3496,0.023 c -46.1742,3.2934 -93.3537,25.3201 -125.5391,56.2207 -5.6445,5.4195 -10.8948,11.4576 -15.9375,17.7559 l -44.4277,-104.2813 a 122.24928,122.24928 0 0 0 -0.082,-0.1894 c -14.8824,-34.7701 -48.5313,-66.2354 -81.4649,-79.4922 -17.4243,-7.0149 -33.904,-9.5765 -47.916,-10.0469 -2.0331,-0.1081 -4.3491,-0.207 -7.3652,-0.2324 -2.9035,-0.026 -6.3514,0.077 -10.0957,0.2969 a 122.24928,122.24928 0 0 0 -0.3301,0 c -2.3346,0.1224 -4.3777,0.3793 -6.5332,0.584 -0.6879,0.074 -1.2483,0.081 -1.957,0.1679 l 0,0.01 c -12.1292,1.3112 -21.7726,3.8153 -31.0254,6.9102 -8.0014,2.6666 -14.6341,5.5185 -15.7735,6.0019 a 122.24928,122.24928 0 0 0 -0.4472,0.1914 c -5.5304,2.3722 -6.9961,3.1551 -10.4649,4.7832 a 122.24928,122.24928 0 0 0 -4.0039,1.9707 c -1.6388,0.8435 -4.2196,2.004 -6.5332,3.0235 1.9663,-0.8487 3.9903,-1.7236 8.6231,-3.6973 a 122.24928,122.24928 0 0 0 -4,1.789 c -21.4394,10.0565 -44.6736,29.501 -61.0801,53.004 l -48.752,20.8066 c -28.3624,-4.5537 -58.3049,-1.2102 -80.9824,7.5703 a 122.24928,122.24928 0 0 0 -3.041,1.2481 c -0.6895,0.03 -2.2434,0.2889 -14.2012,5.3554 a 122.24928,122.24928 0 0 0 -0.4824,0.2051 c -15.6212,6.6978 -13.7541,6.7748 -15.0371,7.4551 -6.2733,3.3255 -14.7341,7.837 -25.9883,16.9765 a 122.24928,122.24928 0 0 0 -8.2441,7.336 c -5.8399,5.6899 -7.6612,7.927 -8.9434,9.3086 a 122.24928,122.24928 0 0 0 -5.4668,6.3086 c -3.3966,4.202 -6.4867,8.7383 -9.3984,13.3398 l -22.918,-23.9141 0.9219,0.9727 c -37.6409,-40.1497 -96.9258,-66.4118 -152.0293,-67.5312 a 122.24928,122.24928 0 0 0 -0.061,0 c -1.6324,-0.032 -3.3189,-0.049 -5.0586,-0.045 l -0.02,0 c -15.4175,0.03 -31.1746,2.2431 -46.7402,5.9649 l 10.0136,-91.1621 A 122.24928,122.24928 0 0 0 6128.6509,6256.048 l -509.7812,-10.5879 a 122.24928,122.24928 0 0 0 -124.4922,130.543 l 10.1191,148.1172 c -9.1679,-6.4635 -18.5597,-12.6437 -28.1796,-18.5117 -75.519,-46.2526 -162.1601,-71.0989 -251.3184,-72.9199 a 122.24928,122.24928 0 0 0 -0.01,0 c -2.7512,-0.056 -5.5382,-0.094 -8.3613,-0.1075 l -0.023,0 c -75.6273,-0.3634 -149.8197,16.0935 -217.4395,48.1289 -10.1733,-54.6114 -36.3727,-107.0509 -74.3008,-146.5605 -50.5878,-52.6929 -124.9965,-85.8875 -198.7929,-87.3945 a 122.24928,122.24928 0 0 0 -0.037,0 c -2.1979,-0.044 -4.4923,-0.069 -6.8829,-0.062 a 122.24928,122.24928 0 0 0 -0.014,0 c -71.6178,0.1624 -144.2369,30.1761 -195.3946,79.289 -23.1512,22.2251 -42.4341,49.0099 -56.9296,78.25 -46.3709,-23.9181 -98.0345,-37.5963 -150.1856,-38.6836 -2.8374,-0.068 -5.6251,-0.1015 -8.3418,-0.1015 a 122.24928,122.24928 0 0 0 -0.1035,0.01 c -2.8619,8e-4 -5.7329,0.033 -8.6113,0.1055 -54.0611,1.3524 -107.5358,16.4194 -155.0567,42.3945 -3.6478,-13.538 -8.5446,-26.5477 -14.9922,-38.2636 a 122.24928,122.24928 0 0 0 -0.01,-0.012 c -22.4808,-40.8396 -66.7888,-76.028 -111.2539,-88.9257 a 122.24928,122.24928 0 0 0 -0.012,0 c -24.0856,-6.9835 -51.3941,-8.1683 -77.791,-4.502 -1.077,-2.1993 -2.1697,-4.3855 -3.3379,-6.5078 -22.4737,-40.8283 -66.7854,-76.0289 -111.2539,-88.9277 a 122.24928,122.24928 0 0 0 -0.041,-0.012 c -15.4909,-4.4874 -33.3412,-7.7717 -53.5097,-7.664 l -0.01,0 a 122.24928,122.24928 0 0 0 -0.4902,0 c -30.3712,0.2845 -61.9585,9.0974 -87.4961,23.1562 -37.9695,20.9015 -70.858,60.7342 -85.6739,102.0137 -7.8737,-9.3216 -15.9962,-18.4899 -24.4765,-27.4336 -30.2382,-32.1888 -62.7613,-60.7853 -97.5606,-85.2773 a 122.24928,122.24928 0 0 0 -12.8301,-7.7715 c -9.9291,-33.0147 -32.5016,-66.2902 -55.8711,-82.0137 -8.9278,-6.1129 -11.4156,-7.3527 -15.08,-9.2363 -3.4975,-2.2249 -7.2832,-4.6449 -9.8633,-6.2656 l -0.014,-0.01 c -6.4406,-4.0464 -12.8264,-7.6639 -19.2461,-11.1172 -6.0289,-3.5058 -12.1228,-6.9983 -20.4394,-11.0449 a 122.24928,122.24928 0 0 0 -0.021,-0.01 c -6.98,-3.3946 -4.874,-14.8084 -59.5176,-15.1074 l 0,0 z"
         id="path5037"
         inkscape:connector-curvature="0" />
    </clipPath>
    <clipPath
       clipPathUnits="userSpaceOnUse"
       id="clipPath5035-9">
      <path
         style="font-size:60.49792862px;font-style:normal;font-variant:normal;font-weight:normal;font-stretch:normal;text-align:start;line-height:125%;letter-spacing:0px;word-spacing:0px;writing-mode:lr-tb;text-anchor:start;fill:#fbd41e;fill-opacity:1;stroke:none;display:inline;font-family:FontAwesome;-inkscape-font-specification:FontAwesome"
         d="m 3283.7266,6043.0215 c -33.997,-0.3997 -72.5639,17.769 -98.0918,41.0449 -5.9472,-0.3159 -11.8975,-0.6561 -17.8282,-0.7773 a 122.24928,122.24928 0 0 0 -0.01,0 c -99.7306,-2.0338 -197.2548,22.3383 -283.4492,71.6191 -84.03,48.0414 -155.6108,115.4383 -211.6016,197.7148 a 122.24928,122.24928 0 0 0 -0.2871,0.4239 c -18.8635,27.9704 -29.7382,63.0238 -30.4219,96.3125 a 122.24928,122.24928 0 0 0 0,0.1582 c -0.082,4.2822 0.036,8.6288 0.3067,13.0078 -41.6342,-16.4522 -86.0893,-25.5268 -130.8243,-26.4629 3.4692,-13.6069 4.978,-27.3861 4.2305,-40.2207 -2.3248,-33.1324 -22.0586,-75.1503 -50.2227,-97.9356 -42.1536,-35.038 -90.3563,-61.9665 -141.9648,-79.5117 -46.0978,-15.7296 -94.3685,-23.8092 -142.7793,-24.082 a 122.24928,122.24928 0 0 0 -0.7012,0.031 l 0.014,-0.031 c -6.6074,0 -12.9545,0.124 -19.0762,0.3164 a 122.24928,122.24928 0 0 0 -0.3418,0.01 c -55.4683,1.8985 -110.2591,13.9692 -161.4023,35.7519 -50.8061,21.5744 -97.5724,52.455 -137.457,91.3438 a 122.24928,122.24928 0 0 0 -1.7481,1.7383 l -0.5137,0.5214 a 122.24928,122.24928 0 0 0 -2.4257,2.5352 c -9.8314,10.5711 -18.3013,24.8561 -24.6856,40.2734 -2.3465,-1.0805 -4.6206,-2.2708 -6.9883,-3.3183 -68.9965,-30.9951 -144.2545,-46.7001 -221.8613,-48.2852 a 122.24928,122.24928 0 0 0 -0.332,-0.01 c -4.3005,-0.076 -8.8522,-0.1366 -13.6504,-0.1465 l -0.076,0 c -4.9117,-0.012 -9.9367,0.035 -15.0801,0.1679 -67.3946,1.7271 -133.2605,14.493 -194.9023,39.0899 -69.8198,27.6742 -131.4749,69.6522 -177.7344,125.3554 -18.8693,22.7217 -34.8249,48.062 -47.3183,75.0157 -24.5606,-22.7206 -51.3965,-43.0689 -80.2364,-60.6621 -75.52467,-46.2658 -162.17795,-71.1143 -251.34763,-72.9336 a 122.24928,122.24928 0 0 0 -0.006,0 c -2.82139,-0.058 -5.60691,-0.093 -8.35742,-0.1055 l -0.0293,0 c -86.3569,-0.4172 -170.84651,21.0932 -245.81055,62.6973 a 122.24928,122.24928 0 0 0 -0.25976,0.1445 c -31.25243,17.4439 -60.42122,38.0955 -87.16797,61.5 -7.59103,-30.5945 -29.1989,-66.7238 -45.58203,-79.584 a 122.24928,122.24928 0 0 0 -11.74414,-8.1543 c -19.79144,-12.0927 -34.88488,-21.2506 -45.96875,-27.8379 -5.54194,-3.2936 -9.93482,-5.874 -14.44922,-8.4004 -2.2572,-1.2631 -4.3384,-2.4393 -8.24024,-4.3886 -1.95092,-0.9747 -4.15142,-2.1133 -9.0957,-4.1446 -4.94428,-2.0312 0.16076,-9.3125 -46.92187,-9.3125 a 122.24928,122.24928 0 0 0 -41.7168,7.3379 l -2.8457,1.0332 a 122.24928,122.24928 0 0 0 -14.24414,6.3633 c -8.98434,-7.723 -25.18715,-16.0341 -64.4375,-17.2598 a 122.24928,122.24928 0 0 0 -3.94141,0.074 l 0.12695,-0.127 c -40.65752,0 -38.78751,6.1696 -43.75781,8.0527 -4.9703,1.8832 -7.20596,2.9606 -9.14063,3.8614 -3.86931,1.8016 -5.7904,2.824 -7.83984,3.8926 -4.09887,2.1369 -7.87462,4.1957 -12.710936,6.83 a 122.24928,122.24928 0 0 0 -0.002,0 c -9.359702,5.0984 -19.586963,10.6678 -30.455079,16.6875 a 122.24928,122.24928 0 0 0 -0.0039,0 c -10.015225,5.5476 -26.925832,13.756 -10.871094,6.1133 a 122.24928,122.24928 0 0 0 -18.880859,11.168 c -18.910095,13.615 -52.021575,55.7943 -52.806641,100.9355 -0.01302,0.01 -0.02799,0.02 -0.04101,0.027 -0.0063,0.3296 0.0054,0.5713 0,0.8965 -0.0018,0.234 -0.03125,0.4651 -0.03125,0.6992 l 0.01758,-1.5879 c -5.597468,3.0852 -12.056343,7.2846 -19.878906,13.7265 -5.763848,0.015 -12.05534,0.4317 -18.808594,1.4258 -6.905776,-10.5318 -14.780569,-19.734 -22.9375,-26.8281 -21.625284,-18.2223 -56.077791,-32.8478 -86.337891,-33.5391 a 122.24928,122.24928 0 0 0 -0.40039,-0.01 l -92.45117,-1.8086 a 122.24928,122.24928 0 0 0 -0.13867,0 c -24.98088,-0.4602 -60.11824,7.7952 -86.81836,28.6094 -10.57065,8.2403 -19.07018,17.5148 -25.96289,26.9746 -6.61809,-1.202 -13.22377,-1.9669 -19.64453,-2.1153 a 122.24928,122.24928 0 0 0 -0.38867,-0.012 c -65.86344,-1.3128 -73.77376,19.4853 -88.0918,29.7031 -14.31804,10.2179 -25.52271,20.2278 -38.02734,32.0332 -22.44654,21.1904 -38.45152,36.7016 -54.74024,57.9883 l 0.91602,-1.0957 c -16.92786,21.9504 -29.07447,53.4957 -29.86524,81.8926 -0.23201,8.0093 0.19636,15.2316 1,21.9355 -13.13269,9.0146 -24.04463,19.1528 -31.22656,28.5079 -17.14588,22.5934 -27.73546,51.9652 -28.44141,80.2168 a 122.24928,122.24928 0 0 0 -0.0137,0.6386 l -1.81054,91.6797 0.0176,-0.7832 c -0.69964,26.7342 8.49911,61.0884 27.25586,86.2754 a 122.24928,122.24928 0 0 0 4.42188,5.5898 c 7.06488,8.4148 15.68478,15.9819 25.125,22.5977 -1.08836,6.2817 -1.85469,12.769 -2.04688,19.5644 a 122.24928,122.24928 0 0 0 -0.0234,0.918 c -1.16873,56.3149 15.54311,66.1047 23.57226,78.6192 8.02916,12.5144 15.26941,21.2937 23.32227,30.6347 16.10571,18.6821 35.41406,38.2653 60.30078,62.2071 a 122.24928,122.24928 0 0 0 6.39062,5.7285 c 20.66925,17.2619 54.19305,31.7863 85.86328,32.5175 a 122.24928,122.24928 0 0 0 0.1211,0 c 6.50881,0.1439 13.68118,-0.3424 21.1582,-1.4082 6.02405,9.2169 12.6668,17.4659 19.54297,23.8418 a 122.24928,122.24928 0 0 0 6.14648,5.3301 c 18.79666,15.2348 50.40834,30.3603 84.03907,31.1153 a 122.24928,122.24928 0 0 0 0.35351,0.012 l 92.45313,1.8086 a 122.24928,122.24928 0 0 0 0.13672,0 c 24.9865,0.4607 60.1243,-7.7972 86.822258,-28.6114 10.568472,-8.2393 19.068968,-17.5139 25.960937,-26.9726 5.910443,1.0728 11.792555,1.729 17.5625,1.9687 0.123325,0.1104 0.272506,0.2709 0.394532,0.3789 7.41329,6.5643 13.555264,10.8804 18.943359,14.1426 -0.0056,0.2554 -0.02414,0.4315 -0.0293,0.6895 a 122.24928,122.24928 0 0 0 -0.02344,2.4433 c 0,48.0052 26.8902044,82.621 49.007812,99.9141 a 122.24928,122.24928 0 0 0 11.664063,8.0762 c 20.058026,12.2274 35.185397,21.404 45.783203,27.7636 5.298903,3.1799 9.381551,5.6106 12.951172,7.6856 1.78481,1.0375 3.299187,1.9173 5.783203,3.2754 1.242008,0.679 2.525243,1.4066 5.794921,3.0039 1.63484,0.7986 3.56455,1.7855 8.22461,3.6621 4.50674,1.8149 -0.13464,8.3714 41.7832,8.8047 38.66201,1.3291 55.54681,-5.946 65.26758,-13.1524 9.59711,7.269 26.13152,14.6404 61.9707,15.7598 a 122.24928,122.24928 0 0 0 3.81641,0.059 c 43.38528,0 37.77168,-5.8844 42.07031,-7.4551 4.29864,-1.5706 6.10385,-2.4026 7.63477,-3.0781 3.06183,-1.3511 4.29919,-1.9827 5.50391,-2.5762 2.4094,-1.187 3.94904,-1.9908 5.76757,-2.9433 3.63706,-1.9051 7.86695,-4.1765 13.34375,-7.1465 10.95361,-5.94 26.58035,-14.5275 47.23047,-25.9864 a 122.24928,122.24928 0 0 0 12.09571,-7.6699 c 8.70555,-6.2656 20.41808,-18.6075 30.60546,-34.4922 l 0,1096.0899 6685.71281,0 0,-1209.3067 c 21.9234,7.326 44.4994,11.1854 65.7285,11.6172 l 276.8165,5.6836 a 122.24928,122.24928 0 0 0 0.051,0 c 48.9521,0.9852 106.3928,-16.0692 146.6172,-52.8945 41.8792,-38.1916 63.0422,-97.3318 64.0508,-147.1582 a 122.24928,122.24928 0 0 0 0,-0.1231 c 0.2504,-13.0092 0.1388,-26.6059 -0.6484,-40.7968 -0.3166,-7.7013 -0.8576,-15.552 -1.6895,-23.5586 5.4554,-2.9221 10.8288,-6.0582 16.0156,-9.6055 a 122.24928,122.24928 0 0 0 1.1934,-0.8262 c 42.4835,-29.8015 69.6537,-88.8425 70.6055,-134.9941 a 122.24928,122.24928 0 0 0 0,-0.027 c 0.9042,-44.3766 -0.038,-81.5945 -14.1719,-124.58 -4.9823,-15.1522 -11.9931,-31.9128 -24.0957,-48.8223 0.8958,-6.7291 1.4631,-13.4255 1.5976,-20.0312 l 0,-0.012 c 1.0322,-50.8075 -20.7546,-107.7379 -56.4882,-144.9687 a 122.24928,122.24928 0 0 0 -0.018,-0.021 c -35.1992,-36.6581 -90.7912,-61.5445 -142.4961,-62.5977 -51.7378,-1.0538 -108.2362,21.4758 -144.9863,56.754 -6.9727,6.6933 -13.4893,14.1072 -19.4805,22.0703 -6.5681,-0.7196 -13.1309,-1.2184 -19.6563,-1.3516 -2.0034,-0.041 -3.9593,-0.058 -5.8632,-0.055 -4.5261,0.01 -9.0692,0.2065 -13.6153,0.5 -5.6498,-8.1725 -11.8446,-15.8269 -18.5293,-22.791 l -0.012,-0.012 c -35.6155,-37.1003 -91.598,-61.2405 -142.2871,-62.3379 -1.5016,-0.051 -3.1379,-0.114 -5.8516,-0.1367 a 122.24928,122.24928 0 0 0 -0.045,0 c -3.4356,-0.027 -7.8943,0.01 -13.4199,0.3867 a 122.24928,122.24928 0 0 0 -0.3496,0.023 c -46.1742,3.2934 -93.3537,25.3201 -125.5391,56.2207 -5.6445,5.4195 -10.8948,11.4576 -15.9375,17.7559 l -44.4277,-104.2813 a 122.24928,122.24928 0 0 0 -0.082,-0.1894 c -14.8824,-34.7701 -48.5313,-66.2354 -81.4649,-79.4922 -17.4243,-7.0149 -33.904,-9.5765 -47.916,-10.0469 -2.0331,-0.1081 -4.3491,-0.207 -7.3652,-0.2324 -2.9035,-0.026 -6.3514,0.077 -10.0957,0.2969 a 122.24928,122.24928 0 0 0 -0.3301,0 c -2.3346,0.1224 -4.3777,0.3793 -6.5332,0.584 -0.6879,0.074 -1.2483,0.081 -1.957,0.1679 l 0,0.01 c -12.1292,1.3112 -21.7726,3.8153 -31.0254,6.9102 -8.0014,2.6666 -14.6341,5.5185 -15.7735,6.0019 a 122.24928,122.24928 0 0 0 -0.4472,0.1914 c -5.5304,2.3722 -6.9961,3.1551 -10.4649,4.7832 a 122.24928,122.24928 0 0 0 -4.0039,1.9707 c -1.6388,0.8435 -4.2196,2.004 -6.5332,3.0235 1.9663,-0.8487 3.9903,-1.7236 8.6231,-3.6973 a 122.24928,122.24928 0 0 0 -4,1.789 c -21.4394,10.0565 -44.6736,29.501 -61.0801,53.004 l -48.752,20.8066 c -28.3624,-4.5537 -58.3049,-1.2102 -80.9824,7.5703 a 122.24928,122.24928 0 0 0 -3.041,1.2481 c -0.6895,0.03 -2.2434,0.2889 -14.2012,5.3554 a 122.24928,122.24928 0 0 0 -0.4824,0.2051 c -15.6212,6.6978 -13.7541,6.7748 -15.0371,7.4551 -6.2733,3.3255 -14.7341,7.837 -25.9883,16.9765 a 122.24928,122.24928 0 0 0 -8.2441,7.336 c -5.8399,5.6899 -7.6612,7.927 -8.9434,9.3086 a 122.24928,122.24928 0 0 0 -5.4668,6.3086 c -3.3966,4.202 -6.4867,8.7383 -9.3984,13.3398 l -22.918,-23.9141 0.9219,0.9727 c -37.6409,-40.1497 -96.9258,-66.4118 -152.0293,-67.5312 a 122.24928,122.24928 0 0 0 -0.061,0 c -1.6324,-0.032 -3.3189,-0.049 -5.0586,-0.045 l -0.02,0 c -15.4175,0.03 -31.1746,2.2431 -46.7402,5.9649 l 10.0136,-91.1621 A 122.24928,122.24928 0 0 0 6128.6509,6256.048 l -509.7812,-10.5879 a 122.24928,122.24928 0 0 0 -124.4922,130.543 l 10.1191,148.1172 c -9.1679,-6.4635 -18.5597,-12.6437 -28.1796,-18.5117 -75.519,-46.2526 -162.1601,-71.0989 -251.3184,-72.9199 a 122.24928,122.24928 0 0 0 -0.01,0 c -2.7512,-0.056 -5.5382,-0.094 -8.3613,-0.1075 l -0.023,0 c -75.6273,-0.3634 -149.8197,16.0935 -217.4395,48.1289 -10.1733,-54.6114 -36.3727,-107.0509 -74.3008,-146.5605 -50.5878,-52.6929 -124.9965,-85.8875 -198.7929,-87.3945 a 122.24928,122.24928 0 0 0 -0.037,0 c -2.1979,-0.044 -4.4923,-0.069 -6.8829,-0.062 a 122.24928,122.24928 0 0 0 -0.014,0 c -71.6178,0.1624 -144.2369,30.1761 -195.3946,79.289 -23.1512,22.2251 -42.4341,49.0099 -56.9296,78.25 -46.3709,-23.9181 -98.0345,-37.5963 -150.1856,-38.6836 -2.8374,-0.068 -5.6251,-0.1015 -8.3418,-0.1015 a 122.24928,122.24928 0 0 0 -0.1035,0.01 c -2.8619,8e-4 -5.7329,0.033 -8.6113,0.1055 -54.0611,1.3524 -107.5358,16.4194 -155.0567,42.3945 -3.6478,-13.538 -8.5446,-26.5477 -14.9922,-38.2636 a 122.24928,122.24928 0 0 0 -0.01,-0.012 c -22.4808,-40.8396 -66.7888,-76.028 -111.2539,-88.9257 a 122.24928,122.24928 0 0 0 -0.012,0 c -24.0856,-6.9835 -51.3941,-8.1683 -77.791,-4.502 -1.077,-2.1993 -2.1697,-4.3855 -3.3379,-6.5078 -22.4737,-40.8283 -66.7854,-76.0289 -111.2539,-88.9277 a 122.24928,122.24928 0 0 0 -0.041,-0.012 c -15.4909,-4.4874 -33.3412,-7.7717 -53.5097,-7.664 l -0.01,0 a 122.24928,122.24928 0 0 0 -0.4902,0 c -30.3712,0.2845 -61.9585,9.0974 -87.4961,23.1562 -37.9695,20.9015 -70.858,60.7342 -85.6739,102.0137 -7.8737,-9.3216 -15.9962,-18.4899 -24.4765,-27.4336 -30.2382,-32.1888 -62.7613,-60.7853 -97.5606,-85.2773 a 122.24928,122.24928 0 0 0 -12.8301,-7.7715 c -9.9291,-33.0147 -32.5016,-66.2902 -55.8711,-82.0137 -8.9278,-6.1129 -11.4156,-7.3527 -15.08,-9.2363 -3.4975,-2.2249 -7.2832,-4.6449 -9.8633,-6.2656 l -0.014,-0.01 c -6.4406,-4.0464 -12.8264,-7.6639 -19.2461,-11.1172 -6.0289,-3.5058 -12.1228,-6.9983 -20.4394,-11.0449 a 122.24928,122.24928 0 0 0 -0.021,-0.01 c -6.98,-3.3946 -4.874,-14.8084 -59.5176,-15.1074 l 0,0 z"
         id="path5037-8"
         inkscape:connector-curvature="0" />
    </clipPath>
    <clipPath
       clipPathUnits="userSpaceOnUse"
       id="clipPath4049">
      <rect
         y="308.26773"
         x="0"
         height="744.09448"
         width="1052.3622"
         id="rect4051"
         style="fill:#cccccc;fill-opacity:1;stroke:none" />
    </clipPath>
  </defs>
  <sodipodi:namedview
     id="base"
     pagecolor="#ffffff"
     bordercolor="#666666"
     borderopacity="1.0"
     inkscape:pageopacity="0.0"
     inkscape:pageshadow="2"
     inkscape:zoom="1.4879352"
     inkscape:cx="565.71668"
     inkscape:cy="284.60009"
     inkscape:document-units="px"
     inkscape:current-layer="layer1"
     showgrid="false"
     borderlayer="true"
     inkscape:showpageshadow="false"
     inkscape:window-width="2880"
     inkscape:window-height="1671"
     inkscape:window-x="0"
     inkscape:window-y="55"
     inkscape:window-maximized="1"
     showguides="true"
     inkscape:guide-bbox="true">
    <sodipodi:guide
       position="0,0"
       orientation="0,1052.3622"
       id="guide5275" />
    <sodipodi:guide
       position="1052.3622,0"
       orientation="-744.09447,0"
       id="guide5277" />
    <sodipodi:guide
       position="1052.3622,744.09447"
       orientation="0,-1052.3622"
       id="guide5279" />
    <sodipodi:guide
       position="0,744.09447"
       orientation="744.09447,0"
       id="guide5281" />
    <sodipodi:guide
       orientation="1,0"
       position="828.39071,263.64977"
       id="guide7052" />
    <sodipodi:guide
       orientation="1,0"
       position="1004.6772,191.88711"
       id="guide7054" />
    <sodipodi:guide
       orientation="1,0"
       position="144.49554,193.55682"
       id="guide5451" />
  </sodipodi:namedview>
  <metadata
     id="metadata5168">
    <rdf:RDF>
      <cc:Work
         rdf:about="">
        <dc:format>image/svg+xml</dc:format>
        <dc:type
           rdf:resource="http://purl.org/dc/dcmitype/StillImage" />
        <dc:title />
      </cc:Work>
    </rdf:RDF>
  </metadata>
  <g
     inkscape:label="Camada 1"
     inkscape:groupmode="layer"
     id="layer1"
     transform="translate(0,-308.26771)">
    <rect
       y="389.58502"
       x="1043.5516"
       height="1010.0071"
       width="996.56238"
       id="rect3765"
       style="fill:url(#linearGradient3767);fill-opacity:1;stroke:none;display:inline" />
    <path
       id="path80195"
       d="m 229.80986,449.82915 c -1.45278,0 -2.92388,0.3182 -4.26423,0.91403 -1.25801,0.52688 -2.4395,1.2826 -3.41139,2.2545 -0.96422,0.96421 -1.73314,2.10834 -2.28891,3.33107 a 4.4134122,4.4134122 0 0 0 -0.067,0.15487 c -0.5428,1.32688 -0.81077,2.76631 -0.81077,4.18775 l 0,25.71921 c 0,1.42142 0.26702,2.86045 0.81077,4.18965 a 4.4134122,4.4134122 0 0 0 0.067,0.15489 c 0.55577,1.22272 1.32469,2.36684 2.28891,3.33106 0.96424,0.96423 2.10841,1.73314 3.33108,2.28891 a 4.4134122,4.4134122 0 0 0 0.15489,0.067 c 1.32917,0.54377 2.76821,0.81079 4.18965,0.81079 l 32.04096,0 a 4.4134122,4.4134122 0 0 0 2.8511,-1.04598 4.4134122,4.4134122 0 0 0 2.84345,1.04598 l 35.20184,0 a 4.4134122,4.4134122 0 0 0 2.83199,-1.02877 4.4134122,4.4134122 0 0 0 2.82624,1.02877 l 4.34071,0 a 4.4134122,4.4134122 0 0 0 4.41338,-4.41338 l 0,-9.9454 9.76373,0 10.73324,12.78311 a 4.4134122,4.4134122 0 0 0 3.37887,1.57567 l 5.73471,0 a 4.4134122,4.4134122 0 0 0 3.37314,-7.25878 l -6.49386,-7.69856 c 0.35971,-0.10438 0.74674,-0.0703 1.09378,-0.21225 a 4.4134122,4.4134122 0 0 0 0.15489,-0.067 c 1.22814,-0.55825 2.37034,-1.33011 3.33106,-2.29084 a 4.4134122,4.4134122 0 0 0 0.0937,-0.0955 c 0.894,-0.94987 1.62761,-2.06747 2.15314,-3.27753 0.60596,-1.34943 0.9217,-2.83543 0.9217,-4.30056 l 0,-9.03518 12.02779,0 0,29.8228 a 4.4134122,4.4134122 0 0 0 4.41337,4.41338 l 4.33881,0 a 4.4134122,4.4134122 0 0 0 4.41337,-4.41338 l 0,-29.8228 12.37964,0 0,29.8228 a 4.4134122,4.4134122 0 0 0 4.41339,4.41338 l 4.3388,0 a 4.4134122,4.4134122 0 0 0 3.77087,-2.12829 4.4134122,4.4134122 0 0 0 3.76897,2.12829 l 4.33879,0 a 4.4134122,4.4134122 0 0 0 4.41338,-4.41338 l 0,-12.67794 20.39561,0 a 4.4134122,4.4134122 0 0 0 4.41338,-4.41339 l 0,-4.39425 a 4.4134122,4.4134122 0 0 0 -4.41338,-4.41337 l -20.39561,0 0,-3.92385 25.4993,0 0,29.8228 a 4.4134122,4.4134122 0 0 0 4.41338,4.41338 l 4.34072,0 a 4.4134122,4.4134122 0 0 0 4.41337,-4.41338 l 0,-1.33281 c 0.50421,0.91536 1.02591,1.83286 1.77262,2.57957 0.96421,0.96421 2.10837,1.73313 3.33107,2.28891 a 4.4134122,4.4134122 0 0 0 0.15489,0.067 c 1.32918,0.54377 2.76822,0.81077 4.18964,0.81077 l 32.04098,0 a 4.4134122,4.4134122 0 0 0 2.84919,-1.04406 4.4134122,4.4134122 0 0 0 2.84346,1.04406 l 4.34071,0 a 4.4134122,4.4134122 0 0 0 4.41337,-4.41337 l 0,-9.67768 21.07064,0 0,9.67768 a 4.4134122,4.4134122 0 0 0 4.41337,4.41337 l 4.34071,0 a 4.4134122,4.4134122 0 0 0 3.10352,-1.28118 4.4134122,4.4134122 0 0 0 3.10734,1.28118 l 32.14805,0 c 1.42143,0 2.86047,-0.26701 4.18965,-0.81077 a 4.4134122,4.4134122 0 0 0 0.15489,-0.067 c 1.22266,-0.55577 2.36683,-1.32468 3.33107,-2.28891 0.719,-0.71901 1.18572,-1.63187 1.66744,-2.52411 0.49865,0.89309 1.00376,1.79349 1.73438,2.52411 0.96421,0.96421 2.10839,1.73314 3.33107,2.28891 a 4.4134122,4.4134122 0 0 0 0.15488,0.067 c 1.32918,0.54376 2.76821,0.81077 4.18965,0.81077 l 25.7192,0 c 1.42144,0 2.86088,-0.26796 4.18774,-0.81077 a 4.4134122,4.4134122 0 0 0 0.1549,-0.067 c 1.22269,-0.55578 2.36684,-1.3247 3.33106,-2.28891 0.97187,-0.97187 1.72761,-2.15336 2.2545,-3.41138 0.59583,-1.34035 0.91403,-2.81145 0.91403,-4.26422 l 0,-25.71921 c 0,-1.45276 -0.31923,-2.92426 -0.91403,-4.26232 -0.52689,-1.25802 -1.28263,-2.4395 -2.2545,-3.41137 -0.97188,-0.97188 -2.15336,-1.72761 -3.41138,-2.2545 -1.33806,-0.5948 -2.80955,-0.91403 -4.26232,-0.91403 l -25.7192,0 c -1.45277,0 -2.92386,0.3182 -4.26423,0.91403 -1.25801,0.52689 -2.43951,1.28262 -3.41137,2.2545 -0.73062,0.73062 -1.23573,1.63101 -1.73438,2.52411 -0.48172,-0.89225 -0.94844,-1.80511 -1.66744,-2.52411 -0.9719,-0.9719 -2.15339,-1.72762 -3.41139,-2.2545 -1.34034,-0.59583 -2.81145,-0.91403 -4.26422,-0.91403 l -32.14805,0 a 4.4134122,4.4134122 0 0 0 -4.39426,4.03475 c -0.22013,-0.27072 -0.32505,-0.61954 -0.57174,-0.86622 -0.97188,-0.97188 -2.15336,-1.72761 -3.4114,-2.2545 -1.34036,-0.59584 -2.81144,-0.91403 -4.26421,-0.91403 l -25.7173,0 c -1.45277,0 -2.92387,0.3182 -4.26422,0.91403 -1.258,0.52688 -2.43949,1.2826 -3.41138,2.2545 -0.0663,0.0663 -0.0924,0.16149 -0.1568,0.22946 a 4.4134122,4.4134122 0 0 0 -4.291,-3.39799 l -32.04098,0 c -1.45277,0 -2.92386,0.31819 -4.26423,0.91403 -1.25802,0.52689 -2.4395,1.28262 -3.41137,2.2545 -0.74671,0.7467 -1.26841,1.6642 -1.77262,2.57956 l 0,-1.33472 a 4.4134122,4.4134122 0 0 0 -4.41337,-4.41337 l -4.34072,0 a 4.4134122,4.4134122 0 0 0 -1.73821,0.35757 4.4134122,4.4134122 0 0 0 -1.72479,-0.35757 l -35.20185,0 a 4.4134122,4.4134122 0 0 0 -3.77088,2.12828 4.4134122,4.4134122 0 0 0 -3.76896,-2.12828 l -4.3388,0 a 4.4134122,4.4134122 0 0 0 -2.05563,0.51247 4.4134122,4.4134122 0 0 0 -2.05754,-0.51247 l -38.5788,0 a 4.4134122,4.4134122 0 0 0 -3.88561,2.33098 c -0.65521,-0.48034 -1.24807,-1.05135 -1.99253,-1.3634 -1.33942,-0.5948 -2.80888,-0.91404 -4.2604,-0.91404 l -32.14805,0 a 4.4134122,4.4134122 0 0 0 -2.79947,1.00391 4.4134122,4.4134122 0 0 0 -2.85876,-1.05745 l -35.20184,0 a 4.4134122,4.4134122 0 0 0 -2.8511,1.04597 4.4134122,4.4134122 0 0 0 -2.84345,-1.04597 l -32.04096,0 z m 118.41923,3.2756 0.0937,0.0956 c -0.0155,-0.0165 -0.0399,-0.022 -0.0555,-0.0382 -0.0163,-0.0166 -0.0219,-0.0411 -0.0383,-0.0574 z m 193.69528,3.224 c -0.002,0.0129 -0.10655,-0.13113 0.0172,0.0802 -0.0111,-0.0253 -0.006,-0.0552 -0.0172,-0.0802 z m 44.78965,0 c -0.002,0.0129 -0.10653,-0.13113 0.0172,0.0802 -0.0111,-0.0253 -0.006,-0.0552 -0.0172,-0.0802 z m -236.28014,0.0363 0.0995,0.22565 c -0.0107,-0.0263 -0.0368,-0.0444 -0.0478,-0.0708 -0.0227,-0.0498 -0.0281,-0.10551 -0.0516,-0.15488 z m -87.30188,6.44033 0,21.45688 a 4.4134122,4.4134122 0 0 0 -1.28118,-0.19504 l -29.71764,0 0,-21.07062 29.71764,0 a 4.4134122,4.4134122 0 0 0 1.28118,-0.19122 z m 232.31805,0 0,21.45498 a 4.4134122,4.4134122 0 0 0 -1.27927,-0.19314 l -29.71764,0 0,-21.07062 29.71764,0 a 4.4134122,4.4134122 0 0 0 1.27927,-0.19122 z m -191.45799,0.0101 0,21.43395 a 4.4134122,4.4134122 0 0 0 -1.24485,-0.18166 l -26.44966,0 0,-3.92576 20.3937,0 a 4.4134122,4.4134122 0 0 0 4.41338,-4.41372 l 0,-4.39426 a 4.4134122,4.4134122 0 0 0 -4.41338,-4.41337 l -20.3937,0 0,-3.92385 26.44966,0 a 4.4134122,4.4134122 0 0 0 1.24485,-0.18166 z m 204.62545,0.18167 21.07064,0 0,6.97955 -21.07064,0 0,-6.97955 z m 44.78967,0 21.07063,0 0,21.07062 -21.07063,0 0,-21.07062 z m 44.47033,0 21.07062,0 0,21.07062 -21.07062,0 0,-21.07062 z m -280.71798,0.0535 21.01708,0 0,6.60286 -21.01708,0 0,-6.60286 z m 269.62142,27.53006 c -0.009,9.9e-4 0.0127,-0.14772 -0.0497,0.0746 0.0115,-0.0276 0.0384,-0.0468 0.0497,-0.0746 z"
       style="font-size:54.72651291px;font-style:normal;font-variant:normal;font-weight:300;font-stretch:normal;text-align:end;line-height:125%;letter-spacing:0px;word-spacing:0px;writing-mode:lr-tb;text-anchor:end;fill:#ffffff;fill-opacity:1;stroke:none;font-family:Orbitron;-inkscape-font-specification:'Orbitron, Light'"
       inkscape:connector-curvature="0" />
    <g
       id="text6348"
       style="font-size:54.72651291px;font-style:normal;font-variant:normal;font-weight:300;font-stretch:normal;text-align:end;line-height:125%;letter-spacing:0px;word-spacing:0px;writing-mode:lr-tb;text-anchor:end;fill:#4d4d4d;fill-opacity:1;stroke:none;font-family:Orbitron;-inkscape-font-specification:'Orbitron, Light'"
       transform="matrix(0.97905081,0,0,0.97905081,22.161245,26.84282)">
      <path
         id="path80341"
         d="m 212.09196,440.97794 q -0.87562,0 -1.53234,0.65672 -0.60199,0.60199 -0.60199,1.47761 l 0,26.26873 q 0,0.87562 0.60199,1.53234 0.65672,0.60199 1.53234,0.60199 l 32.72646,0 0,4.43285 -32.72646,0 q -1.36816,0 -2.57214,-0.49254 -1.20399,-0.54726 -2.07961,-1.42289 -0.87563,-0.87562 -1.42289,-2.0796 -0.49254,-1.20399 -0.49254,-2.57215 l 0,-26.26873 q 0,-1.36816 0.49254,-2.57214 0.54726,-1.20399 1.42289,-2.07961 0.87562,-0.87562 2.07961,-1.36816 1.20398,-0.54727 2.57214,-0.54727 l 32.72646,0 0,4.43285 -32.72646,0 z"
         inkscape:connector-curvature="0" />
      <path
         id="path80343"
         d="m 286.58928,440.97794 -31.52247,0 0,13.02491 25.33838,0 0,4.48757 -25.33838,0 0,13.02491 31.52247,0 0,4.43285 -35.95532,0 0,-39.40309 35.95532,0 0,4.43285 z"
         inkscape:connector-curvature="0" />
      <path
         id="path80345"
         d="m 331.77286,454.71429 q 0,1.36817 -0.54726,2.57215 -0.49254,1.14926 -1.36816,2.07961 -0.87563,0.87562 -2.07961,1.42289 -1.20399,0.49254 -2.57215,0.49254 l -6.01991,0 12.36819,14.6667 -5.85574,0 -12.31347,-14.6667 -14.44779,0 q -0.43782,0 -0.98508,-0.0547 -0.54727,-0.0547 -1.14926,-0.16418 l 0,14.88561 -4.43285,0 0,-39.34836 32.83591,0 q 1.36816,0 2.57215,0.54726 1.20398,0.49254 2.07961,1.42289 0.87562,0.87563 1.36816,2.07961 0.54726,1.14926 0.54726,2.51742 l 0,11.54729 z m -6.56718,2.07961 q 0.87563,0 1.47762,-0.60199 0.60199,-0.60199 0.60199,-1.47762 l 0,-11.54729 q 0,-0.87562 -0.60199,-1.47762 -0.60199,-0.65671 -1.47762,-0.65671 l -26.26872,0 q -0.87563,0 -1.53235,0.65671 -0.60199,0.602 -0.60199,1.47762 l 0,11.54729 q 0,0.87563 0.60199,1.47762 0.65672,0.60199 1.53235,0.60199 l 26.26872,0 z"
         inkscape:connector-curvature="0" />
      <path
         id="path80347"
         d="m 374.96405,436.54509 0,4.43285 -17.45776,0 0,34.97024 -4.43285,0 0,-34.97024 -17.51248,0 0,-4.43285 39.40309,0 z"
         inkscape:connector-curvature="0" />
      <path
         id="path80349"
         d="m 379.16517,436.54509 4.43285,0 0,39.40309 -4.43285,0 0,-39.40309 z"
         inkscape:connector-curvature="0" />
      <path
         id="path80351"
         d="m 427.25352,436.54509 0,4.43285 -31.52247,0 0,13.02491 25.33838,0 0,4.48757 -25.33838,0 0,17.45776 -4.43284,0 0,-39.40309 35.95531,0 z"
         inkscape:connector-curvature="0" />
      <path
         id="path80353"
         d="m 430.79194,436.54509 4.43285,0 0,39.40309 -4.43285,0 0,-39.40309 z"
         inkscape:connector-curvature="0" />
      <path
         id="path80355"
         d="m 449.3827,440.97794 q -0.87562,0 -1.53234,0.65672 -0.60199,0.60199 -0.60199,1.47761 l 0,26.26873 q 0,0.87562 0.60199,1.53234 0.65672,0.60199 1.53234,0.60199 l 32.72646,0 0,4.43285 -32.72646,0 q -1.36816,0 -2.57214,-0.49254 -1.20399,-0.54726 -2.07961,-1.42289 -0.87562,-0.87562 -1.42289,-2.0796 -0.49254,-1.20399 -0.49254,-2.57215 l 0,-26.26873 q 0,-1.36816 0.49254,-2.57214 0.54727,-1.20399 1.42289,-2.07961 0.87562,-0.87562 2.07961,-1.36816 1.20398,-0.54727 2.57214,-0.54727 l 32.72646,0 0,4.43285 -32.72646,0 z"
         inkscape:connector-curvature="0" />
      <path
         id="path80357"
         d="m 520.76061,436.54509 q 1.36816,0 2.57214,0.54727 1.20399,0.49254 2.07961,1.36816 0.87563,0.87562 1.36816,2.07961 0.54727,1.20398 0.54727,2.57214 l 0,32.83591 -4.43285,0 0,-14.39307 -30.53739,0 0,14.39307 -4.43285,0 0,-32.83591 q 0,-1.36816 0.49254,-2.57214 0.54726,-1.20399 1.42289,-2.07961 0.87562,-0.87562 2.07961,-1.36816 1.20398,-0.54727 2.57214,-0.54727 l 26.26873,0 z m 2.13433,20.57717 0,-14.00999 q 0,-0.87562 -0.65672,-1.47761 -0.60199,-0.65672 -1.47761,-0.65672 l -26.26873,0 q -0.87562,0 -1.53234,0.65672 -0.60199,0.60199 -0.60199,1.47761 l 0,14.00999 30.53739,0 z"
         inkscape:connector-curvature="0" />
      <path
         id="path80359"
         d="m 566.50856,436.54509 q 1.36817,0 2.57215,0.54727 1.20398,0.49254 2.07961,1.36816 0.87562,0.87562 1.36816,2.07961 0.54727,1.20398 0.54727,2.57214 l 0,26.26873 q 0,1.36816 -0.54727,2.57215 -0.49254,1.20398 -1.36816,2.0796 -0.87563,0.87563 -2.07961,1.42289 -1.20398,0.49254 -2.57215,0.49254 l -32.8359,0 0,-39.40309 32.8359,0 z m 2.13434,6.56718 q 0,-0.87562 -0.65672,-1.47761 -0.60199,-0.65672 -1.47762,-0.65672 l -26.26872,0 q -0.87563,0 -1.53234,0.65672 -0.602,0.60199 -0.602,1.47761 l 0,26.26873 q 0,0.87562 0.602,1.53234 0.65671,0.60199 1.53234,0.60199 l 26.26872,0 q 0.87563,0 1.47762,-0.60199 0.65672,-0.65672 0.65672,-1.53234 l 0,-26.26873 z"
         inkscape:connector-curvature="0" />
      <path
         id="path80361"
         d="m 611.93071,436.54509 q 1.36816,0 2.57215,0.54727 1.20398,0.49254 2.0796,1.36816 0.87563,0.87562 1.36817,2.07961 0.54726,1.20398 0.54726,2.57214 l 0,26.26873 q 0,1.36816 -0.54726,2.57215 -0.49254,1.20398 -1.36817,2.0796 -0.87562,0.87563 -2.0796,1.42289 -1.20399,0.49254 -2.57215,0.49254 l -26.26873,0 q -1.36816,0 -2.57214,-0.49254 -1.20399,-0.54726 -2.07961,-1.42289 -0.87562,-0.87562 -1.42289,-2.0796 -0.49254,-1.20399 -0.49254,-2.57215 l 0,-26.26873 q 0,-1.36816 0.49254,-2.57214 0.54727,-1.20399 1.42289,-2.07961 0.87562,-0.87562 2.07961,-1.36816 1.20398,-0.54727 2.57214,-0.54727 l 26.26873,0 z m 0,34.97024 q 0.87562,0 1.47762,-0.60199 0.65671,-0.65672 0.65671,-1.53234 l 0,-26.26873 q 0,-0.87562 -0.65671,-1.47761 -0.602,-0.65672 -1.47762,-0.65672 l -26.26873,0 q -0.87562,0 -1.53234,0.65672 -0.60199,0.60199 -0.60199,1.47761 l 0,26.26873 q 0,0.87562 0.60199,1.53234 0.65672,0.60199 1.53234,0.60199 l 26.26873,0 z"
         inkscape:connector-curvature="0" />
    </g>
    <flowRoot
       transform="translate(90.002715,273.69439)"
       id="flowRoot3089-5"
       xml:space="preserve"
       style="font-style:normal;font-variant:normal;font-weight:normal;font-stretch:normal;font-size:18px;line-height:129.99999523%;font-family:FreeSans;-inkscape-font-specification:FreeSans;text-align:justify;writing-mode:lr-tb;text-anchor:start;fill:#000000;fill-opacity:1;stroke:none"><flowRegion
         id="flowRegion3091-3"><rect
           width="521.75226"
           height="253.49338"
           x="120.39213"
           y="264.42462"
           id="rect3093-3"
           style="font-style:normal;font-variant:normal;font-weight:normal;font-stretch:normal;font-size:18px;line-height:129.99999523%;font-family:FreeSans;-inkscape-font-specification:FreeSans;text-align:justify;writing-mode:lr-tb;text-anchor:start" /></flowRegion><flowPara
         id="flowPara3136-9"
         style="font-style:normal;font-variant:normal;font-weight:normal;font-stretch:normal;font-size:18px;line-height:129.99999523%;font-family:FreeSans;-inkscape-font-specification:FreeSans;text-align:justify;writing-mode:lr-tb;text-anchor:start">Certificamos que <flowSpan
   id="flowSpan6345"
   style="font-weight:600;-inkscape-font-specification:'FreeSans Semi-Bold'">%%NOMBRE%%</flowSpan> participou do evento , como <flowSpan
   id="flowSpan6343"
   style="font-weight:600;-inkscape-font-specification:'FreeSans Semi-Bold'">participante</flowSpan>.</flowPara></flowRoot>    <flowRoot
       xml:space="preserve"
       id="flowRoot3819"
       style="font-size:40px;font-style:normal;font-weight:normal;line-height:125%;letter-spacing:0px;word-spacing:0px;writing-mode:tb-rl;fill:#000000;fill-opacity:1;stroke:none;font-family:Sans"
       transform="translate(0,308.26771)"><flowRegion
         id="flowRegion3821"><rect
           id="rect3823"
           width="24.711798"
           height="422.00146"
           x="5.7027225"
           y="124.39864"
           style="writing-mode:tb-rl" /></flowRegion><flowPara
         id="flowPara3825">asdflkjasdf</flowPara></flowRoot>    <flowRoot
       xml:space="preserve"
       id="flowRoot3827"
       style="font-size:40px;font-style:normal;font-weight:normal;line-height:125%;letter-spacing:0px;word-spacing:0px;writing-mode:tb-rl;fill:#000000;fill-opacity:1;stroke:none;font-family:Sans"
       transform="translate(0,308.26771)"><flowRegion
         id="flowRegion3829"><rect
           id="rect3831"
           width="87.441742"
           height="201.49619"
           x="-218.60435"
           y="299.28214" /></flowRegion><flowPara
         id="flowPara3833" /></flowRoot>    <flowRoot
       xml:space="preserve"
       id="flowRoot3835"
       style="font-size:10px;font-style:normal;font-weight:normal;line-height:125%;letter-spacing:0px;word-spacing:0px;writing-mode:tb-rl;fill:#000000;fill-opacity:1;stroke:none;font-family:Sans"
       transform="translate(0,308.26771)"><flowRegion
         id="flowRegion3837"><rect
           id="rect3839"
           width="366.27939"
           height="23.52253"
           x="5.3765783"
           y="7.5032578" /></flowRegion><flowPara
         id="flowPara3841">http</flowPara></flowRoot>    <flowRoot
       xml:space="preserve"
       id="flowRoot5455"
       style="fill:black;stroke:none;stroke-opacity:1;stroke-width:1px;stroke-linejoin:miter;stroke-linecap:butt;fill-opacity:1;font-family:Ubuntu Mono;font-style:normal;font-weight:normal;font-size:40px;line-height:125%;letter-spacing:0px;word-spacing:0px;-inkscape-font-specification:Ubuntu Mono;font-stretch:normal;font-variant:normal"><flowRegion
         id="flowRegion5457"><rect
           id="rect5459"
           width="143.99374"
           height="46.097008"
           x="181.53667"
           y="604.37781" /></flowRegion><flowPara
         id="flowPara5461" /></flowRoot>    <flowRoot
       xml:space="preserve"
       id="flowRoot5463"
       style="font-size:40px;font-style:normal;font-variant:normal;font-weight:normal;font-stretch:normal;line-height:125%;letter-spacing:0px;word-spacing:0px;fill:#000000;fill-opacity:1;stroke:none;font-family:Ubuntu Mono;-inkscape-font-specification:Ubuntu Mono"
       transform="translate(0,308.26771)"><flowRegion
         id="flowRegion5465"><rect
           id="rect5467"
           width="535.58069"
           height="42.295193"
           x="143.99374"
           y="593.44757" /></flowRegion><flowPara
         id="flowPara5469">Uma cópia on-line deste documento encontra-se na seguinte URL</flowPara></flowRoot>    <flowRoot
       xml:space="preserve"
       id="flowRoot5471"
       style="fill:black;stroke:none;stroke-opacity:1;stroke-width:1px;stroke-linejoin:miter;stroke-linecap:butt;fill-opacity:1;font-family:Ubuntu Mono;font-style:normal;font-weight:normal;font-size:40px;line-height:125%;letter-spacing:0px;word-spacing:0px;-inkscape-font-specification:Ubuntu Mono;font-stretch:normal;font-variant:normal"><flowRegion
         id="flowRegion5473"><rect
           id="rect5475"
           width="534.63025"
           height="54.651089"
           x="144.46896"
           y="587.26959" /></flowRegion><flowPara
         id="flowPara5477" /></flowRoot>  </g>
</svg>
